# xmcd
#
# Track frame offsets:
#	150
#	31163
#	57775
#	148409
#	182435
#	206467
#	239374
#	269697
#	326931
#
# Disc length: 4692 seconds
#
# Revision: 1
# Processed by: cddbd v1.5.2PL0 Copyright (c) Steve Scherf et al.
# Submitted via: audiograbber 1.83.01
#
DISCID=87125209
DTITLE=Mark Knopfler and E. C. - Live in R.A.H. 87
DYEAR=1987
DGENRE=Blues
TTITLE0=White room
TTITLE1=Miss you
TTITLE2=Same old blues
TTITLE3=I shot the sheriff
TTITLE4=Hung up on your love
TTITLE5=Tearing us apart
TTITLE6=Holy mother
TTITLE7=Badge and let it rain
TTITLE8=Money for nothing
EXTD=
EXTT0=
EXTT1=
EXTT2=
EXTT3=
EXTT4=
EXTT5=
EXTT6=
EXTT7=
EXTT8=
PLAYORDER=
